<?xml version="1.0"?>
<svg version="1.1" xmlns="http://www.w3.org/2000/svg" width="294" height="91" style=""><path fill="#2cb1bc" d="M16.54,71.9l0-3.74l3.3-1.32l0-20.68l-3.3-1.32l0-3.74l10.56-0.22l11.88,20.328l0-15.048l-3.212-1.32l0-3.74l12.54-0.22l0,3.96l-3.3,1.32l0,25.74l-7.348,0l-11.792-19.932l0,14.872l3.432,1.32l0,3.74l-12.76,0z M66.10644,47.7c7.128,0,11.088,4.312,11.088,11.88c0,7.92-4.62,12.76-11.748,12.76c-7.172,0-11.22-3.74-11.22-12.1c0-7.92,4.708-12.54,11.88-12.54z M65.88644,52.98c-3.212,0-4.84,1.76-4.84,7.04c0,4.84,1.408,7.04,4.62,7.04c3.168,0,4.708-1.98,4.708-7.26c0-4.488-1.32-6.82-4.488-6.82z M96.40088,51.88l0-3.52l11.528-0.22l0,3.74l-2.508,0.572l-7.084,19.448l-7.26,0l-6.952-19.316l-2.112-0.704l0-3.52l11.528-0.22l0,3.74l-2.464,0.44l4.004,12.98l3.872-12.848z M115.47532,40.88c0-2.508,1.804-3.96,3.784-3.96c2.288,0,3.696,1.188,3.696,3.96c0,2.596-1.892,4.004-3.696,4.004c-2.376,0-3.784-1.408-3.784-4.004z M122.86732,67.28l3.08,1.1l0,3.52l-13.2,0l0-3.52l3.52-1.1l0-14.3l-3.52-1.1l0-3.52l10.12-0.22l0,19.14z M145.2642,71.9l0-3.74l3.3-1.32l0-20.68l-3.3-1.32l0-3.74l10.12-0.22l4.18,0c6.732,0,10.692,3.52,10.692,9.24c0,7.392-4.532,11-12.54,11l-2.332,0l0,5.72l3.3,1.32l0,3.74l-13.42,0z M155.3842,55.972l2.332,0c3.652,0,5.72-1.716,5.72-4.972c0-2.86-1.54-4.84-4.532-4.84l-3.52,0l0,9.812z M187.61464,47.7c7.128,0,11.088,4.312,11.088,11.88c0,7.92-4.62,12.76-11.748,12.76c-7.172,0-11.22-3.74-11.22-12.1c0-7.92,4.708-12.54,11.88-12.54z M187.39464,52.98c-3.212,0-4.84,1.76-4.84,7.04c0,4.84,1.408,7.04,4.62,7.04c3.168,0,4.708-1.98,4.708-7.26c0-4.488-1.32-6.82-4.488-6.82z M208.93308,64.2l0.352,2.86s1.54,0.44,3.696,0.44c2.42,0,3.608-0.748,3.608-2.156c0-3.608-11.748-2.288-11.748-10.12c0-5.5,4.4-7.524,9.064-7.524c3.96,0,8.184,1.32,8.184,1.32l-0.176,6.6l-3.74,0l-0.66-2.64s-1.276-0.44-3.036-0.44c-1.892,0-3.036,0.792-3.036,2.244c0,3.564,11.748,2.024,11.748,9.636c0,5.06-4.092,7.92-10.12,7.92c-4.18,0-8.096-0.968-8.096-0.968l0-7.172l3.96,0z M244.33152,71.9l-0.792-2.86s-3.388,3.3-7.128,3.3c-4.268,0-6.864-2.508-6.864-6.908c0-5.192,3.916-7.26,10.604-7.26l3.08,0l0-2.42c0-2.244-1.188-3.212-3.388-3.212c-2.244,0-3.872,0.66-3.872,0.66l-0.66,2.772l-3.96,0l-0.308-6.512s5.324-1.76,9.548-1.76c6.688,0,9.24,2.332,9.24,8.712l0,10.868l3.3,0.792l0,3.52z M243.23152,61.912l-2.508,0c-3.432,0-4.796,0.88-4.796,2.86c0,1.672,0.924,2.64,2.596,2.64c2.332,0,4.708-2.552,4.708-2.552l0-2.948z M270.70996,47.7c7.128,0,11.088,4.312,11.088,11.88c0,7.92-4.62,12.76-11.748,12.76c-7.172,0-11.22-3.74-11.22-12.1c0-7.92,4.708-12.54,11.88-12.54z M270.48996,52.98c-3.212,0-4.84,1.76-4.84,7.04c0,4.84,1.408,7.04,4.62,7.04c3.168,0,4.708-1.98,4.708-7.26c0-4.488-1.32-6.82-4.488-6.82z"/><path fill="#" d=""/></svg>
